<svg width="334.4" height="36" viewBox="0 0 334.4 36" xmlns="http://www.w3.org/2000/svg"><g id="svgGroup" stroke-linecap="round" fill-rule="evenodd" font-size="9pt" stroke="#000" stroke-width="0.25mm" fill="none" style="stroke:#000;stroke-width:0.25mm;fill:none"><path d="M 115.2 16 L 113.7 16 A 5.87 5.87 0 0 1 113.822 16.656 Q 113.868 17.009 113.887 17.416 A 12.653 12.653 0 0 1 113.9 18 A 11.181 11.181 0 0 1 113.864 18.917 Q 113.828 19.361 113.754 19.748 A 6.155 6.155 0 0 1 113.7 20 Q 113.849 20.597 113.887 21.416 A 12.653 12.653 0 0 1 113.9 22 A 11.181 11.181 0 0 1 113.864 22.917 Q 113.828 23.361 113.754 23.748 A 6.155 6.155 0 0 1 113.7 24 L 112.7 24 Q 112.849 24.597 112.887 25.416 A 12.653 12.653 0 0 1 112.9 26 A 11.181 11.181 0 0 1 112.864 26.917 Q 112.828 27.361 112.754 27.748 A 6.155 6.155 0 0 1 112.7 28 L 109.7 28 A 6.968 6.968 0 0 1 109.563 27.199 Q 109.516 26.785 109.504 26.318 A 12.512 12.512 0 0 1 109.5 26 Q 109.5 24.8 109.7 24 L 108.7 24 A 6.968 6.968 0 0 1 108.563 23.199 Q 108.516 22.785 108.504 22.318 A 12.512 12.512 0 0 1 108.5 22 Q 108.5 20.8 108.7 20 L 105.7 20 Q 105.849 20.597 105.887 21.416 A 12.653 12.653 0 0 1 105.9 22 A 11.181 11.181 0 0 1 105.864 22.917 Q 105.828 23.361 105.754 23.748 A 6.155 6.155 0 0 1 105.7 24 L 104.7 24 Q 104.849 24.597 104.887 25.416 A 12.653 12.653 0 0 1 104.9 26 A 11.181 11.181 0 0 1 104.864 26.917 Q 104.828 27.361 104.754 27.748 A 6.155 6.155 0 0 1 104.7 28 L 101.7 28 A 6.968 6.968 0 0 1 101.563 27.199 Q 101.516 26.785 101.504 26.318 A 12.512 12.512 0 0 1 101.5 26 Q 101.5 24.8 101.7 24 L 100.7 24 A 6.968 6.968 0 0 1 100.563 23.199 Q 100.516 22.785 100.504 22.318 A 12.512 12.512 0 0 1 100.5 22 Q 100.5 20.8 100.7 20 A 6.968 6.968 0 0 1 100.563 19.199 Q 100.516 18.785 100.504 18.318 A 12.512 12.512 0 0 1 100.5 18 Q 100.5 16.8 100.7 16 L 99.2 16 A 6.968 6.968 0 0 1 99.063 15.199 Q 99.016 14.785 99.004 14.318 A 12.512 12.512 0 0 1 99 14 Q 99 12.8 99.2 12 A 6.968 6.968 0 0 1 99.063 11.199 Q 99.016 10.785 99.004 10.318 A 12.512 12.512 0 0 1 99 10 Q 99 8.8 99.2 8 L 103.2 8 A 5.87 5.87 0 0 1 103.322 8.656 Q 103.368 9.009 103.387 9.416 A 12.653 12.653 0 0 1 103.4 10 A 11.181 11.181 0 0 1 103.364 10.917 Q 103.328 11.361 103.254 11.748 A 6.155 6.155 0 0 1 103.2 12 A 5.87 5.87 0 0 1 103.322 12.656 Q 103.368 13.009 103.387 13.416 A 12.653 12.653 0 0 1 103.4 14 A 11.181 11.181 0 0 1 103.364 14.917 Q 103.328 15.361 103.254 15.748 A 6.155 6.155 0 0 1 103.2 16 A 5.87 5.87 0 0 1 103.322 16.656 Q 103.368 17.009 103.387 17.416 A 12.653 12.653 0 0 1 103.4 18 A 11.181 11.181 0 0 1 103.364 18.917 Q 103.328 19.361 103.254 19.748 A 6.155 6.155 0 0 1 103.2 20 L 104.7 20 A 6.968 6.968 0 0 1 104.563 19.199 Q 104.516 18.785 104.504 18.318 A 12.512 12.512 0 0 1 104.5 18 Q 104.5 16.8 104.7 16 L 105.7 16 A 6.968 6.968 0 0 1 105.563 15.199 Q 105.516 14.785 105.504 14.318 A 12.512 12.512 0 0 1 105.5 14 Q 105.5 12.8 105.7 12 A 6.968 6.968 0 0 1 105.563 11.199 Q 105.516 10.785 105.504 10.318 A 12.512 12.512 0 0 1 105.5 10 Q 105.5 8.8 105.7 8 L 108.7 8 A 5.87 5.87 0 0 1 108.822 8.656 Q 108.868 9.009 108.887 9.416 A 12.653 12.653 0 0 1 108.9 10 A 11.181 11.181 0 0 1 108.864 10.917 Q 108.828 11.361 108.754 11.748 A 6.155 6.155 0 0 1 108.7 12 A 5.87 5.87 0 0 1 108.822 12.656 Q 108.868 13.009 108.887 13.416 A 12.653 12.653 0 0 1 108.9 14 A 11.181 11.181 0 0 1 108.864 14.917 Q 108.828 15.361 108.754 15.748 A 6.155 6.155 0 0 1 108.7 16 L 109.7 16 A 5.87 5.87 0 0 1 109.822 16.656 Q 109.868 17.009 109.887 17.416 A 12.653 12.653 0 0 1 109.9 18 A 11.181 11.181 0 0 1 109.864 18.917 Q 109.828 19.361 109.754 19.748 A 6.155 6.155 0 0 1 109.7 20 L 111.2 20 A 6.968 6.968 0 0 1 111.063 19.199 Q 111.016 18.785 111.004 18.318 A 12.512 12.512 0 0 1 111 18 Q 111 16.8 111.2 16 A 6.968 6.968 0 0 1 111.063 15.199 Q 111.016 14.785 111.004 14.318 A 12.512 12.512 0 0 1 111 14 Q 111 12.8 111.2 12 A 6.968 6.968 0 0 1 111.063 11.199 Q 111.016 10.785 111.004 10.318 A 12.512 12.512 0 0 1 111 10 Q 111 8.8 111.2 8 L 115.2 8 A 5.87 5.87 0 0 1 115.322 8.656 Q 115.368 9.009 115.387 9.416 A 12.653 12.653 0 0 1 115.4 10 A 11.181 11.181 0 0 1 115.364 10.917 Q 115.328 11.361 115.254 11.748 A 6.155 6.155 0 0 1 115.2 12 A 5.87 5.87 0 0 1 115.322 12.656 Q 115.368 13.009 115.387 13.416 A 12.653 12.653 0 0 1 115.4 14 A 11.181 11.181 0 0 1 115.364 14.917 Q 115.328 15.361 115.254 15.748 A 6.155 6.155 0 0 1 115.2 16 Z M 135.2 20 L 133.2 20 Q 133.349 20.597 133.387 21.416 A 12.653 12.653 0 0 1 133.4 22 A 11.181 11.181 0 0 1 133.364 22.917 Q 133.328 23.361 133.254 23.748 A 6.155 6.155 0 0 1 133.2 24 L 131.2 24 Q 131.349 24.597 131.387 25.416 A 12.653 12.653 0 0 1 131.4 26 A 11.181 11.181 0 0 1 131.364 26.917 Q 131.328 27.361 131.254 27.748 A 6.155 6.155 0 0 1 131.2 28 L 123.2 28 A 5.87 5.87 0 0 1 123.322 28.656 Q 123.368 29.009 123.387 29.416 A 12.653 12.653 0 0 1 123.4 30 A 11.181 11.181 0 0 1 123.364 30.917 Q 123.328 31.361 123.254 31.748 A 6.155 6.155 0 0 1 123.2 32 Q 123.349 32.597 123.387 33.416 A 12.653 12.653 0 0 1 123.4 34 A 11.181 11.181 0 0 1 123.364 34.917 Q 123.328 35.361 123.254 35.748 A 6.155 6.155 0 0 1 123.2 36 L 119.2 36 A 6.968 6.968 0 0 1 119.063 35.199 Q 119.016 34.785 119.004 34.318 A 12.512 12.512 0 0 1 119 34 Q 119 32.8 119.2 32 A 6.968 6.968 0 0 1 119.063 31.199 Q 119.016 30.785 119.004 30.318 A 12.512 12.512 0 0 1 119 30 Q 119 28.8 119.2 28 A 6.968 6.968 0 0 1 119.063 27.199 Q 119.016 26.785 119.004 26.318 A 12.512 12.512 0 0 1 119 26 Q 119 24.8 119.2 24 A 6.968 6.968 0 0 1 119.063 23.199 Q 119.016 22.785 119.004 22.318 A 12.512 12.512 0 0 1 119 22 Q 119 20.8 119.2 20 A 6.968 6.968 0 0 1 119.063 19.199 Q 119.016 18.785 119.004 18.318 A 12.512 12.512 0 0 1 119 18 Q 119 16.8 119.2 16 A 6.968 6.968 0 0 1 119.063 15.199 Q 119.016 14.785 119.004 14.318 A 12.512 12.512 0 0 1 119 14 Q 119 12.8 119.2 12 A 6.968 6.968 0 0 1 119.063 11.199 Q 119.016 10.785 119.004 10.318 A 12.512 12.512 0 0 1 119 10 Q 119 8.8 119.2 8 L 123.2 8 A 5.87 5.87 0 0 1 123.322 8.656 Q 123.368 9.009 123.387 9.416 A 12.653 12.653 0 0 1 123.4 10 A 11.181 11.181 0 0 1 123.364 10.917 Q 123.328 11.361 123.254 11.748 A 6.155 6.155 0 0 1 123.2 12 L 125.2 12 L 129.2 12 Q 129 12.8 129 14 A 12.512 12.512 0 0 0 129.004 14.318 Q 129.016 14.785 129.063 15.199 A 6.968 6.968 0 0 0 129.2 16 L 131.2 16 Q 131 16.8 131 18 A 12.512 12.512 0 0 0 131.004 18.318 Q 131.016 18.785 131.063 19.199 A 6.968 6.968 0 0 0 131.2 20 L 129.2 20 Q 129 20.8 129 22 A 12.512 12.512 0 0 0 129.004 22.318 Q 129.016 22.785 129.063 23.199 A 6.968 6.968 0 0 0 129.2 24 L 123.2 24 A 6.155 6.155 0 0 0 123.254 23.748 Q 123.328 23.361 123.364 22.917 A 11.181 11.181 0 0 0 123.4 22 A 12.653 12.653 0 0 0 123.387 21.416 Q 123.349 20.597 123.2 20 A 6.155 6.155 0 0 0 123.254 19.748 Q 123.328 19.361 123.364 18.917 A 11.181 11.181 0 0 0 123.4 18 A 12.653 12.653 0 0 0 123.387 17.416 Q 123.368 17.009 123.322 16.656 A 5.87 5.87 0 0 0 123.2 16 L 125.2 16 A 6.155 6.155 0 0 0 125.254 15.748 Q 125.328 15.361 125.364 14.917 A 11.181 11.181 0 0 0 125.4 14 A 12.653 12.653 0 0 0 125.387 13.416 Q 125.368 13.009 125.322 12.656 A 5.87 5.87 0 0 0 125.2 12 A 6.968 6.968 0 0 1 125.063 11.199 Q 125.016 10.785 125.004 10.318 A 12.512 12.512 0 0 1 125 10 Q 125 8.8 125.2 8 L 131.2 8 A 5.87 5.87 0 0 1 131.322 8.656 Q 131.368 9.009 131.387 9.416 A 12.653 12.653 0 0 1 131.4 10 A 11.181 11.181 0 0 1 131.364 10.917 Q 131.328 11.361 131.254 11.748 A 6.155 6.155 0 0 1 131.2 12 L 133.2 12 A 5.87 5.87 0 0 1 133.322 12.656 Q 133.368 13.009 133.387 13.416 A 12.653 12.653 0 0 1 133.4 14 A 11.181 11.181 0 0 1 133.364 14.917 Q 133.328 15.361 133.254 15.748 A 6.155 6.155 0 0 1 133.2 16 L 135.2 16 A 5.87 5.87 0 0 1 135.322 16.656 Q 135.368 17.009 135.387 17.416 A 12.653 12.653 0 0 1 135.4 18 A 11.181 11.181 0 0 1 135.364 18.917 Q 135.328 19.361 135.254 19.748 A 6.155 6.155 0 0 1 135.2 20 Z M 195.2 12 L 193.7 12 A 5.87 5.87 0 0 1 193.822 12.656 Q 193.868 13.009 193.887 13.416 A 12.653 12.653 0 0 1 193.9 14 A 11.181 11.181 0 0 1 193.864 14.917 Q 193.828 15.361 193.754 15.748 A 6.155 6.155 0 0 1 193.7 16 L 192.2 16 A 5.87 5.87 0 0 1 192.322 16.656 Q 192.368 17.009 192.387 17.416 A 12.653 12.653 0 0 1 192.4 18 A 11.181 11.181 0 0 1 192.364 18.917 Q 192.328 19.361 192.254 19.748 A 6.155 6.155 0 0 1 192.2 20 L 191.2 20 Q 191.349 20.597 191.387 21.416 A 12.653 12.653 0 0 1 191.4 22 A 11.181 11.181 0 0 1 191.364 22.917 Q 191.328 23.361 191.254 23.748 A 6.155 6.155 0 0 1 191.2 24 L 189.7 24 Q 189.849 24.597 189.887 25.416 A 12.653 12.653 0 0 1 189.9 26 A 11.181 11.181 0 0 1 189.864 26.917 Q 189.828 27.361 189.754 27.748 A 6.155 6.155 0 0 1 189.7 28 L 188.7 28 A 5.87 5.87 0 0 1 188.822 28.656 Q 188.868 29.009 188.887 29.416 A 12.653 12.653 0 0 1 188.9 30 A 11.181 11.181 0 0 1 188.864 30.917 Q 188.828 31.361 188.754 31.748 A 6.155 6.155 0 0 1 188.7 32 L 186.7 32 Q 186.849 32.597 186.887 33.416 A 12.653 12.653 0 0 1 186.9 34 A 11.181 11.181 0 0 1 186.864 34.917 Q 186.828 35.361 186.754 35.748 A 6.155 6.155 0 0 1 186.7 36 L 180.7 36 A 6.968 6.968 0 0 1 180.563 35.199 Q 180.516 34.785 180.504 34.318 A 12.512 12.512 0 0 1 180.5 34 Q 180.5 32.8 180.7 32 L 184.7 32 A 6.968 6.968 0 0 1 184.563 31.199 Q 184.516 30.785 184.504 30.318 A 12.512 12.512 0 0 1 184.5 30 Q 184.5 28.8 184.7 28 A 6.968 6.968 0 0 1 184.563 27.199 Q 184.516 26.785 184.504 26.318 A 12.512 12.512 0 0 1 184.5 26 Q 184.5 24.8 184.7 24 L 182.7 24 A 6.968 6.968 0 0 1 182.563 23.199 Q 182.516 22.785 182.504 22.318 A 12.512 12.512 0 0 1 182.5 22 Q 182.5 20.8 182.7 20 L 181.7 20 A 6.968 6.968 0 0 1 181.563 19.199 Q 181.516 18.785 181.504 18.318 A 12.512 12.512 0 0 1 181.5 18 Q 181.5 16.8 181.7 16 L 180.2 16 A 6.968 6.968 0 0 1 180.063 15.199 Q 180.016 14.785 180.004 14.318 A 12.512 12.512 0 0 1 180 14 Q 180 12.8 180.2 12 L 178.7 12 A 6.968 6.968 0 0 1 178.563 11.199 Q 178.516 10.785 178.504 10.318 A 12.512 12.512 0 0 1 178.5 10 Q 178.5 8.8 178.7 8 L 182.7 8 A 5.87 5.87 0 0 1 182.822 8.656 Q 182.868 9.009 182.887 9.416 A 12.653 12.653 0 0 1 182.9 10 A 11.181 11.181 0 0 1 182.864 10.917 Q 182.828 11.361 182.754 11.748 A 6.155 6.155 0 0 1 182.7 12 L 184.2 12 A 5.87 5.87 0 0 1 184.322 12.656 Q 184.368 13.009 184.387 13.416 A 12.653 12.653 0 0 1 184.4 14 A 11.181 11.181 0 0 1 184.364 14.917 Q 184.328 15.361 184.254 15.748 A 6.155 6.155 0 0 1 184.2 16 L 185.7 16 A 5.87 5.87 0 0 1 185.822 16.656 Q 185.868 17.009 185.887 17.416 A 12.653 12.653 0 0 1 185.9 18 A 11.181 11.181 0 0 1 185.864 18.917 Q 185.828 19.361 185.754 19.748 A 6.155 6.155 0 0 1 185.7 20 Q 185.849 20.597 185.887 21.416 A 12.653 12.653 0 0 1 185.9 22 A 11.181 11.181 0 0 1 185.864 22.917 Q 185.828 23.361 185.754 23.748 A 6.155 6.155 0 0 1 185.7 24 L 187.2 24 A 6.968 6.968 0 0 1 187.063 23.199 Q 187.016 22.785 187.004 22.318 A 12.512 12.512 0 0 1 187 22 Q 187 20.8 187.2 20 L 188.2 20 A 6.968 6.968 0 0 1 188.063 19.199 Q 188.016 18.785 188.004 18.318 A 12.512 12.512 0 0 1 188 18 Q 188 16.8 188.2 16 L 189.7 16 A 6.968 6.968 0 0 1 189.563 15.199 Q 189.516 14.785 189.504 14.318 A 12.512 12.512 0 0 1 189.5 14 Q 189.5 12.8 189.7 12 L 191.2 12 A 6.968 6.968 0 0 1 191.063 11.199 Q 191.016 10.785 191.004 10.318 A 12.512 12.512 0 0 1 191 10 Q 191 8.8 191.2 8 L 195.2 8 A 5.87 5.87 0 0 1 195.322 8.656 Q 195.368 9.009 195.387 9.416 A 12.653 12.653 0 0 1 195.4 10 A 11.181 11.181 0 0 1 195.364 10.917 Q 195.328 11.361 195.254 11.748 A 6.155 6.155 0 0 1 195.2 12 Z M 23.2 12 L 24.7 12 L 31.2 12 Q 31 12.8 31 14 A 12.512 12.512 0 0 0 31.004 14.318 Q 31.016 14.785 31.063 15.199 A 6.968 6.968 0 0 0 31.2 16 Q 31 16.8 31 18 A 12.512 12.512 0 0 0 31.004 18.318 Q 31.016 18.785 31.063 19.199 A 6.968 6.968 0 0 0 31.2 20 Q 31 20.8 31 22 A 12.512 12.512 0 0 0 31.004 22.318 Q 31.016 22.785 31.063 23.199 A 6.968 6.968 0 0 0 31.2 24 Q 31 24.8 31 26 A 12.512 12.512 0 0 0 31.004 26.318 Q 31.016 26.785 31.063 27.199 A 6.968 6.968 0 0 0 31.2 28 L 35.2 28 A 6.155 6.155 0 0 0 35.254 27.748 Q 35.328 27.361 35.364 26.917 A 11.181 11.181 0 0 0 35.4 26 A 12.653 12.653 0 0 0 35.387 25.416 Q 35.349 24.597 35.2 24 A 6.155 6.155 0 0 0 35.254 23.748 Q 35.328 23.361 35.364 22.917 A 11.181 11.181 0 0 0 35.4 22 A 12.653 12.653 0 0 0 35.387 21.416 Q 35.349 20.597 35.2 20 A 6.155 6.155 0 0 0 35.254 19.748 Q 35.328 19.361 35.364 18.917 A 11.181 11.181 0 0 0 35.4 18 A 12.653 12.653 0 0 0 35.387 17.416 Q 35.368 17.009 35.322 16.656 A 5.87 5.87 0 0 0 35.2 16 A 6.155 6.155 0 0 0 35.254 15.748 Q 35.328 15.361 35.364 14.917 A 11.181 11.181 0 0 0 35.4 14 A 12.653 12.653 0 0 0 35.387 13.416 Q 35.368 13.009 35.322 12.656 A 5.87 5.87 0 0 0 35.2 12 L 32.7 12 A 6.155 6.155 0 0 0 32.754 11.748 Q 32.828 11.361 32.864 10.917 A 11.181 11.181 0 0 0 32.9 10 A 12.653 12.653 0 0 0 32.887 9.416 Q 32.868 9.009 32.822 8.656 A 5.87 5.87 0 0 0 32.7 8 L 24.7 8 Q 24.5 8.8 24.5 10 A 12.512 12.512 0 0 0 24.504 10.318 Q 24.516 10.785 24.563 11.199 A 6.968 6.968 0 0 0 24.7 12 A 5.87 5.87 0 0 1 24.822 12.656 Q 24.868 13.009 24.887 13.416 A 12.653 12.653 0 0 1 24.9 14 A 11.181 11.181 0 0 1 24.864 14.917 Q 24.828 15.361 24.754 15.748 A 6.155 6.155 0 0 1 24.7 16 L 23.2 16 A 5.87 5.87 0 0 1 23.322 16.656 Q 23.368 17.009 23.387 17.416 A 12.653 12.653 0 0 1 23.4 18 A 11.181 11.181 0 0 1 23.364 18.917 Q 23.328 19.361 23.254 19.748 A 6.155 6.155 0 0 1 23.2 20 Q 23.349 20.597 23.387 21.416 A 12.653 12.653 0 0 1 23.4 22 A 11.181 11.181 0 0 1 23.364 22.917 Q 23.328 23.361 23.254 23.748 A 6.155 6.155 0 0 1 23.2 24 Q 23.349 24.597 23.387 25.416 A 12.653 12.653 0 0 1 23.4 26 A 11.181 11.181 0 0 1 23.364 26.917 Q 23.328 27.361 23.254 27.748 A 6.155 6.155 0 0 1 23.2 28 L 19.2 28 A 6.968 6.968 0 0 1 19.063 27.199 Q 19.016 26.785 19.004 26.318 A 12.512 12.512 0 0 1 19 26 Q 19 24.8 19.2 24 A 6.968 6.968 0 0 1 19.063 23.199 Q 19.016 22.785 19.004 22.318 A 12.512 12.512 0 0 1 19 22 Q 19 20.8 19.2 20 A 6.968 6.968 0 0 1 19.063 19.199 Q 19.016 18.785 19.004 18.318 A 12.512 12.512 0 0 1 19 18 Q 19 16.8 19.2 16 A 6.968 6.968 0 0 1 19.063 15.199 Q 19.016 14.785 19.004 14.318 A 12.512 12.512 0 0 1 19 14 Q 19 12.8 19.2 12 A 6.968 6.968 0 0 1 19.063 11.199 Q 19.016 10.785 19.004 10.318 A 12.512 12.512 0 0 1 19 10 Q 19 8.8 19.2 8 A 6.968 6.968 0 0 1 19.063 7.199 Q 19.016 6.785 19.004 6.318 A 12.512 12.512 0 0 1 19 6 Q 19 4.8 19.2 4 A 6.968 6.968 0 0 1 19.063 3.199 Q 19.016 2.785 19.004 2.318 A 12.512 12.512 0 0 1 19 2 Q 19 0.8 19.2 0 L 23.2 0 A 5.87 5.87 0 0 1 23.322 0.656 Q 23.368 1.009 23.387 1.416 A 12.653 12.653 0 0 1 23.4 2 A 11.181 11.181 0 0 1 23.364 2.917 Q 23.328 3.361 23.254 3.748 A 6.155 6.155 0 0 1 23.2 4 A 5.87 5.87 0 0 1 23.322 4.656 Q 23.368 5.009 23.387 5.416 A 12.653 12.653 0 0 1 23.4 6 A 11.181 11.181 0 0 1 23.364 6.917 Q 23.328 7.361 23.254 7.748 A 6.155 6.155 0 0 1 23.2 8 A 5.87 5.87 0 0 1 23.322 8.656 Q 23.368 9.009 23.387 9.416 A 12.653 12.653 0 0 1 23.4 10 A 11.181 11.181 0 0 1 23.364 10.917 Q 23.328 11.361 23.254 11.748 A 6.155 6.155 0 0 1 23.2 12 Z M 49.2 24 A 6.968 6.968 0 0 1 49.063 23.199 Q 49.016 22.785 49.004 22.318 A 12.512 12.512 0 0 1 49 22 Q 49 20.8 49.2 20 L 43.2 20 Q 43.349 20.597 43.387 21.416 A 12.653 12.653 0 0 1 43.4 22 A 11.181 11.181 0 0 1 43.364 22.917 Q 43.328 23.361 43.254 23.748 A 6.155 6.155 0 0 1 43.2 24 L 49.2 24 L 51.2 24 Q 51 24.8 51 26 A 12.512 12.512 0 0 0 51.004 26.318 Q 51.016 26.785 51.063 27.199 A 6.968 6.968 0 0 0 51.2 28 L 55.2 28 A 6.155 6.155 0 0 0 55.254 27.748 Q 55.328 27.361 55.364 26.917 A 11.181 11.181 0 0 0 55.4 26 A 12.653 12.653 0 0 0 55.387 25.416 Q 55.349 24.597 55.2 24 L 53.2 24 A 6.155 6.155 0 0 0 53.254 23.748 Q 53.328 23.361 53.364 22.917 A 11.181 11.181 0 0 0 53.4 22 A 12.653 12.653 0 0 0 53.387 21.416 Q 53.349 20.597 53.2 20 A 6.155 6.155 0 0 0 53.254 19.748 Q 53.328 19.361 53.364 18.917 A 11.181 11.181 0 0 0 53.4 18 A 12.653 12.653 0 0 0 53.387 17.416 Q 53.368 17.009 53.322 16.656 A 5.87 5.87 0 0 0 53.2 16 A 6.155 6.155 0 0 0 53.254 15.748 Q 53.328 15.361 53.364 14.917 A 11.181 11.181 0 0 0 53.4 14 A 12.653 12.653 0 0 0 53.387 13.416 Q 53.368 13.009 53.322 12.656 A 5.87 5.87 0 0 0 53.2 12 L 51.2 12 A 6.155 6.155 0 0 0 51.254 11.748 Q 51.328 11.361 51.364 10.917 A 11.181 11.181 0 0 0 51.4 10 A 12.653 12.653 0 0 0 51.387 9.416 Q 51.368 9.009 51.322 8.656 A 5.87 5.87 0 0 0 51.2 8 L 42.2 8 Q 42 8.8 42 10 A 12.512 12.512 0 0 0 42.004 10.318 Q 42.016 10.785 42.063 11.199 A 6.968 6.968 0 0 0 42.2 12 L 49.2 12 Q 49 12.8 49 14 A 12.512 12.512 0 0 0 49.004 14.318 Q 49.016 14.785 49.063 15.199 A 6.968 6.968 0 0 0 49.2 16 L 41.2 16 Q 41 16.8 41 18 A 12.512 12.512 0 0 0 41.004 18.318 Q 41.016 18.785 41.063 19.199 A 6.968 6.968 0 0 0 41.2 20 L 39.2 20 Q 39 20.8 39 22 A 12.512 12.512 0 0 0 39.004 22.318 Q 39.016 22.785 39.063 23.199 A 6.968 6.968 0 0 0 39.2 24 L 41.2 24 Q 41 24.8 41 26 A 12.512 12.512 0 0 0 41.004 26.318 Q 41.016 26.785 41.063 27.199 A 6.968 6.968 0 0 0 41.2 28 L 49.2 28 A 6.155 6.155 0 0 0 49.254 27.748 Q 49.328 27.361 49.364 26.917 A 11.181 11.181 0 0 0 49.4 26 A 12.653 12.653 0 0 0 49.387 25.416 Q 49.349 24.597 49.2 24 Z M 169.2 24 A 6.968 6.968 0 0 1 169.063 23.199 Q 169.016 22.785 169.004 22.318 A 12.512 12.512 0 0 1 169 22 Q 169 20.8 169.2 20 L 163.2 20 Q 163.349 20.597 163.387 21.416 A 12.653 12.653 0 0 1 163.4 22 A 11.181 11.181 0 0 1 163.364 22.917 Q 163.328 23.361 163.254 23.748 A 6.155 6.155 0 0 1 163.2 24 L 169.2 24 L 171.2 24 Q 171 24.8 171 26 A 12.512 12.512 0 0 0 171.004 26.318 Q 171.016 26.785 171.063 27.199 A 6.968 6.968 0 0 0 171.2 28 L 175.2 28 A 6.155 6.155 0 0 0 175.254 27.748 Q 175.328 27.361 175.364 26.917 A 11.181 11.181 0 0 0 175.4 26 A 12.653 12.653 0 0 0 175.387 25.416 Q 175.349 24.597 175.2 24 L 173.2 24 A 6.155 6.155 0 0 0 173.254 23.748 Q 173.328 23.361 173.364 22.917 A 11.181 11.181 0 0 0 173.4 22 A 12.653 12.653 0 0 0 173.387 21.416 Q 173.349 20.597 173.2 20 A 6.155 6.155 0 0 0 173.254 19.748 Q 173.328 19.361 173.364 18.917 A 11.181 11.181 0 0 0 173.4 18 A 12.653 12.653 0 0 0 173.387 17.416 Q 173.368 17.009 173.322 16.656 A 5.87 5.87 0 0 0 173.2 16 A 6.155 6.155 0 0 0 173.254 15.748 Q 173.328 15.361 173.364 14.917 A 11.181 11.181 0 0 0 173.4 14 A 12.653 12.653 0 0 0 173.387 13.416 Q 173.368 13.009 173.322 12.656 A 5.87 5.87 0 0 0 173.2 12 L 171.2 12 A 6.155 6.155 0 0 0 171.254 11.748 Q 171.328 11.361 171.364 10.917 A 11.181 11.181 0 0 0 171.4 10 A 12.653 12.653 0 0 0 171.387 9.416 Q 171.368 9.009 171.322 8.656 A 5.87 5.87 0 0 0 171.2 8 L 162.2 8 Q 162 8.8 162 10 A 12.512 12.512 0 0 0 162.004 10.318 Q 162.016 10.785 162.063 11.199 A 6.968 6.968 0 0 0 162.2 12 L 169.2 12 Q 169 12.8 169 14 A 12.512 12.512 0 0 0 169.004 14.318 Q 169.016 14.785 169.063 15.199 A 6.968 6.968 0 0 0 169.2 16 L 161.2 16 Q 161 16.8 161 18 A 12.512 12.512 0 0 0 161.004 18.318 Q 161.016 18.785 161.063 19.199 A 6.968 6.968 0 0 0 161.2 20 L 159.2 20 Q 159 20.8 159 22 A 12.512 12.512 0 0 0 159.004 22.318 Q 159.016 22.785 159.063 23.199 A 6.968 6.968 0 0 0 159.2 24 L 161.2 24 Q 161 24.8 161 26 A 12.512 12.512 0 0 0 161.004 26.318 Q 161.016 26.785 161.063 27.199 A 6.968 6.968 0 0 0 161.2 28 L 169.2 28 A 6.155 6.155 0 0 0 169.254 27.748 Q 169.328 27.361 169.364 26.917 A 11.181 11.181 0 0 0 169.4 26 A 12.653 12.653 0 0 0 169.387 25.416 Q 169.349 24.597 169.2 24 Z M 311.2 20 L 315.2 20 Q 315.349 20.597 315.387 21.416 A 12.653 12.653 0 0 1 315.4 22 A 11.181 11.181 0 0 1 315.364 22.917 Q 315.328 23.361 315.254 23.748 A 6.155 6.155 0 0 1 315.2 24 L 313.2 24 Q 313.349 24.597 313.387 25.416 A 12.653 12.653 0 0 1 313.4 26 A 11.181 11.181 0 0 1 313.364 26.917 Q 313.328 27.361 313.254 27.748 A 6.155 6.155 0 0 1 313.2 28 L 303.2 28 A 6.968 6.968 0 0 1 303.063 27.199 Q 303.016 26.785 303.004 26.318 A 12.512 12.512 0 0 1 303 26 Q 303 24.8 303.2 24 L 301.2 24 A 6.968 6.968 0 0 1 301.063 23.199 Q 301.016 22.785 301.004 22.318 A 12.512 12.512 0 0 1 301 22 Q 301 20.8 301.2 20 L 299.2 20 A 6.968 6.968 0 0 1 299.063 19.199 Q 299.016 18.785 299.004 18.318 A 12.512 12.512 0 0 1 299 18 Q 299 16.8 299.2 16 L 301.2 16 A 6.968 6.968 0 0 1 301.063 15.199 Q 301.016 14.785 301.004 14.318 A 12.512 12.512 0 0 1 301 14 Q 301 12.8 301.2 12 L 303.2 12 A 6.968 6.968 0 0 1 303.063 11.199 Q 303.016 10.785 303.004 10.318 A 12.512 12.512 0 0 1 303 10 Q 303 8.8 303.2 8 L 313.2 8 A 5.87 5.87 0 0 1 313.322 8.656 Q 313.368 9.009 313.387 9.416 A 12.653 12.653 0 0 1 313.4 10 A 11.181 11.181 0 0 1 313.364 10.917 Q 313.328 11.361 313.254 11.748 A 6.155 6.155 0 0 1 313.2 12 L 315.2 12 A 5.87 5.87 0 0 1 315.322 12.656 Q 315.368 13.009 315.387 13.416 A 12.653 12.653 0 0 1 315.4 14 A 11.181 11.181 0 0 1 315.364 14.917 Q 315.328 15.361 315.254 15.748 A 6.155 6.155 0 0 1 315.2 16 L 311.2 16 A 6.968 6.968 0 0 1 311.063 15.199 Q 311.016 14.785 311.004 14.318 A 12.512 12.512 0 0 1 311 14 Q 311 12.8 311.2 12 L 305.2 12 A 5.87 5.87 0 0 1 305.322 12.656 Q 305.368 13.009 305.387 13.416 A 12.653 12.653 0 0 1 305.4 14 A 11.181 11.181 0 0 1 305.364 14.917 Q 305.328 15.361 305.254 15.748 A 6.155 6.155 0 0 1 305.2 16 L 303.2 16 A 5.87 5.87 0 0 1 303.322 16.656 Q 303.368 17.009 303.387 17.416 A 12.653 12.653 0 0 1 303.4 18 A 11.181 11.181 0 0 1 303.364 18.917 Q 303.328 19.361 303.254 19.748 A 6.155 6.155 0 0 1 303.2 20 L 305.2 20 Q 305.349 20.597 305.387 21.416 A 12.653 12.653 0 0 1 305.4 22 A 11.181 11.181 0 0 1 305.364 22.917 Q 305.328 23.361 305.254 23.748 A 6.155 6.155 0 0 1 305.2 24 L 311.2 24 A 6.968 6.968 0 0 1 311.063 23.199 Q 311.016 22.785 311.004 22.318 A 12.512 12.512 0 0 1 311 22 Q 311 20.8 311.2 20 Z M 14.2 24 L 12.2 24 Q 12.349 24.597 12.387 25.416 A 12.653 12.653 0 0 1 12.4 26 A 11.181 11.181 0 0 1 12.364 26.917 Q 12.328 27.361 12.254 27.748 A 6.155 6.155 0 0 1 12.2 28 L 1.2 28 A 6.968 6.968 0 0 1 1.063 27.199 Q 1.016 26.785 1.004 26.318 A 12.512 12.512 0 0 1 1 26 Q 1 24.8 1.2 24 L 10.2 24 A 6.968 6.968 0 0 1 10.063 23.199 Q 10.016 22.785 10.004 22.318 A 12.512 12.512 0 0 1 10 22 Q 10 20.8 10.2 20 L 2.2 20 A 6.968 6.968 0 0 1 2.063 19.199 Q 2.016 18.785 2.004 18.318 A 12.512 12.512 0 0 1 2 18 Q 2 16.8 2.2 16 L 0.2 16 A 6.968 6.968 0 0 1 0.063 15.199 Q 0.016 14.785 0.004 14.318 A 12.512 12.512 0 0 1 0 14 Q 0 12.8 0.2 12 L 2.2 12 A 6.968 6.968 0 0 1 2.063 11.199 Q 2.016 10.785 2.004 10.318 A 12.512 12.512 0 0 1 2 10 Q 2 8.8 2.2 8 L 13.2 8 A 5.87 5.87 0 0 1 13.322 8.656 Q 13.368 9.009 13.387 9.416 A 12.653 12.653 0 0 1 13.4 10 A 11.181 11.181 0 0 1 13.364 10.917 Q 13.328 11.361 13.254 11.748 A 6.155 6.155 0 0 1 13.2 12 L 4.2 12 A 5.87 5.87 0 0 1 4.322 12.656 Q 4.368 13.009 4.387 13.416 A 12.653 12.653 0 0 1 4.4 14 A 11.181 11.181 0 0 1 4.364 14.917 Q 4.328 15.361 4.254 15.748 A 6.155 6.155 0 0 1 4.2 16 L 12.2 16 A 5.87 5.87 0 0 1 12.322 16.656 Q 12.368 17.009 12.387 17.416 A 12.653 12.653 0 0 1 12.4 18 A 11.181 11.181 0 0 1 12.364 18.917 Q 12.328 19.361 12.254 19.748 A 6.155 6.155 0 0 1 12.2 20 L 14.2 20 Q 14.349 20.597 14.387 21.416 A 12.653 12.653 0 0 1 14.4 22 A 11.181 11.181 0 0 1 14.364 22.917 Q 14.328 23.361 14.254 23.748 A 6.155 6.155 0 0 1 14.2 24 Z M 334.2 24 L 332.2 24 Q 332.349 24.597 332.387 25.416 A 12.653 12.653 0 0 1 332.4 26 A 11.181 11.181 0 0 1 332.364 26.917 Q 332.328 27.361 332.254 27.748 A 6.155 6.155 0 0 1 332.2 28 L 321.2 28 A 6.968 6.968 0 0 1 321.063 27.199 Q 321.016 26.785 321.004 26.318 A 12.512 12.512 0 0 1 321 26 Q 321 24.8 321.2 24 L 330.2 24 A 6.968 6.968 0 0 1 330.063 23.199 Q 330.016 22.785 330.004 22.318 A 12.512 12.512 0 0 1 330 22 Q 330 20.8 330.2 20 L 322.2 20 A 6.968 6.968 0 0 1 322.063 19.199 Q 322.016 18.785 322.004 18.318 A 12.512 12.512 0 0 1 322 18 Q 322 16.8 322.2 16 L 320.2 16 A 6.968 6.968 0 0 1 320.063 15.199 Q 320.016 14.785 320.004 14.318 A 12.512 12.512 0 0 1 320 14 Q 320 12.8 320.2 12 L 322.2 12 A 6.968 6.968 0 0 1 322.063 11.199 Q 322.016 10.785 322.004 10.318 A 12.512 12.512 0 0 1 322 10 Q 322 8.8 322.2 8 L 333.2 8 A 5.87 5.87 0 0 1 333.322 8.656 Q 333.368 9.009 333.387 9.416 A 12.653 12.653 0 0 1 333.4 10 A 11.181 11.181 0 0 1 333.364 10.917 Q 333.328 11.361 333.254 11.748 A 6.155 6.155 0 0 1 333.2 12 L 324.2 12 A 5.87 5.87 0 0 1 324.322 12.656 Q 324.368 13.009 324.387 13.416 A 12.653 12.653 0 0 1 324.4 14 A 11.181 11.181 0 0 1 324.364 14.917 Q 324.328 15.361 324.254 15.748 A 6.155 6.155 0 0 1 324.2 16 L 332.2 16 A 5.87 5.87 0 0 1 332.322 16.656 Q 332.368 17.009 332.387 17.416 A 12.653 12.653 0 0 1 332.4 18 A 11.181 11.181 0 0 1 332.364 18.917 Q 332.328 19.361 332.254 19.748 A 6.155 6.155 0 0 1 332.2 20 L 334.2 20 Q 334.349 20.597 334.387 21.416 A 12.653 12.653 0 0 1 334.4 22 A 11.181 11.181 0 0 1 334.364 22.917 Q 334.328 23.361 334.254 23.748 A 6.155 6.155 0 0 1 334.2 24 Z M 235.2 16 L 231.2 16 A 6.968 6.968 0 0 1 231.063 15.199 Q 231.016 14.785 231.004 14.318 A 12.512 12.512 0 0 1 231 14 Q 231 12.8 231.2 12 L 227.7 12 A 5.87 5.87 0 0 1 227.822 12.656 Q 227.868 13.009 227.887 13.416 A 12.653 12.653 0 0 1 227.9 14 A 11.181 11.181 0 0 1 227.864 14.917 Q 227.828 15.361 227.754 15.748 A 6.155 6.155 0 0 1 227.7 16 L 226.2 16 A 5.87 5.87 0 0 1 226.322 16.656 Q 226.368 17.009 226.387 17.416 A 12.653 12.653 0 0 1 226.4 18 A 11.181 11.181 0 0 1 226.364 18.917 Q 226.328 19.361 226.254 19.748 A 6.155 6.155 0 0 1 226.2 20 Q 226.349 20.597 226.387 21.416 A 12.653 12.653 0 0 1 226.4 22 A 11.181 11.181 0 0 1 226.364 22.917 Q 226.328 23.361 226.254 23.748 A 6.155 6.155 0 0 1 226.2 24 L 229.2 24 Q 229.349 24.597 229.387 25.416 A 12.653 12.653 0 0 1 229.4 26 A 11.181 11.181 0 0 1 229.364 26.917 Q 229.328 27.361 229.254 27.748 A 6.155 6.155 0 0 1 229.2 28 L 219.2 28 A 6.968 6.968 0 0 1 219.063 27.199 Q 219.016 26.785 219.004 26.318 A 12.512 12.512 0 0 1 219 26 Q 219 24.8 219.2 24 L 222.2 24 A 6.968 6.968 0 0 1 222.063 23.199 Q 222.016 22.785 222.004 22.318 A 12.512 12.512 0 0 1 222 22 Q 222 20.8 222.2 20 A 6.968 6.968 0 0 1 222.063 19.199 Q 222.016 18.785 222.004 18.318 A 12.512 12.512 0 0 1 222 18 Q 222 16.8 222.2 16 A 6.968 6.968 0 0 1 222.063 15.199 Q 222.016 14.785 222.004 14.318 A 12.512 12.512 0 0 1 222 14 Q 222 12.8 222.2 12 L 219.2 12 A 6.968 6.968 0 0 1 219.063 11.199 Q 219.016 10.785 219.004 10.318 A 12.512 12.512 0 0 1 219 10 Q 219 8.8 219.2 8 L 224.2 8 A 5.87 5.87 0 0 1 224.322 8.656 Q 224.368 9.009 224.387 9.416 A 12.653 12.653 0 0 1 224.4 10 A 11.181 11.181 0 0 1 224.364 10.917 Q 224.328 11.361 224.254 11.748 A 6.155 6.155 0 0 1 224.2 12 L 226.2 12 A 6.968 6.968 0 0 1 226.063 11.199 Q 226.016 10.785 226.004 10.318 A 12.512 12.512 0 0 1 226 10 Q 226 8.8 226.2 8 L 233.7 8 A 5.87 5.87 0 0 1 233.822 8.656 Q 233.868 9.009 233.887 9.416 A 12.653 12.653 0 0 1 233.9 10 A 11.181 11.181 0 0 1 233.864 10.917 Q 233.828 11.361 233.754 11.748 A 6.155 6.155 0 0 1 233.7 12 L 235.2 12 A 5.87 5.87 0 0 1 235.322 12.656 Q 235.368 13.009 235.387 13.416 A 12.653 12.653 0 0 1 235.4 14 A 11.181 11.181 0 0 1 235.364 14.917 Q 235.328 15.361 235.254 15.748 A 6.155 6.155 0 0 1 235.2 16 Z M 255.2 20 L 244.7 20 Q 244.849 20.597 244.887 21.416 A 12.653 12.653 0 0 1 244.9 22 A 11.181 11.181 0 0 1 244.864 22.917 Q 244.828 23.361 244.754 23.748 A 6.155 6.155 0 0 1 244.7 24 L 253.2 24 Q 253.349 24.597 253.387 25.416 A 12.653 12.653 0 0 1 253.4 26 A 11.181 11.181 0 0 1 253.364 26.917 Q 253.328 27.361 253.254 27.748 A 6.155 6.155 0 0 1 253.2 28 L 243.2 28 A 6.968 6.968 0 0 1 243.063 27.199 Q 243.016 26.785 243.004 26.318 A 12.512 12.512 0 0 1 243 26 Q 243 24.8 243.2 24 L 240.7 24 A 6.968 6.968 0 0 1 240.563 23.199 Q 240.516 22.785 240.504 22.318 A 12.512 12.512 0 0 1 240.5 22 Q 240.5 20.8 240.7 20 L 239.2 20 A 6.968 6.968 0 0 1 239.063 19.199 Q 239.016 18.785 239.004 18.318 A 12.512 12.512 0 0 1 239 18 Q 239 16.8 239.2 16 L 240.7 16 A 6.968 6.968 0 0 1 240.563 15.199 Q 240.516 14.785 240.504 14.318 A 12.512 12.512 0 0 1 240.5 14 Q 240.5 12.8 240.7 12 L 243.2 12 A 6.968 6.968 0 0 1 243.063 11.199 Q 243.016 10.785 243.004 10.318 A 12.512 12.512 0 0 1 243 10 Q 243 8.8 243.2 8 L 253.2 8 A 5.87 5.87 0 0 1 253.322 8.656 Q 253.368 9.009 253.387 9.416 A 12.653 12.653 0 0 1 253.4 10 A 11.181 11.181 0 0 1 253.364 10.917 Q 253.328 11.361 253.254 11.748 A 6.155 6.155 0 0 1 253.2 12 L 255.2 12 A 5.87 5.87 0 0 1 255.322 12.656 Q 255.368 13.009 255.387 13.416 A 12.653 12.653 0 0 1 255.4 14 A 11.181 11.181 0 0 1 255.364 14.917 Q 255.328 15.361 255.254 15.748 A 6.155 6.155 0 0 1 255.2 16 A 5.87 5.87 0 0 1 255.322 16.656 Q 255.368 17.009 255.387 17.416 A 12.653 12.653 0 0 1 255.4 18 A 11.181 11.181 0 0 1 255.364 18.917 Q 255.328 19.361 255.254 19.748 A 6.155 6.155 0 0 1 255.2 20 Z M 153.2 28 L 141.2 28 A 6.968 6.968 0 0 1 141.063 27.199 Q 141.016 26.785 141.004 26.318 A 12.512 12.512 0 0 1 141 26 Q 141 24.8 141.2 24 L 145.2 24 A 6.968 6.968 0 0 1 145.063 23.199 Q 145.016 22.785 145.004 22.318 A 12.512 12.512 0 0 1 145 22 Q 145 20.8 145.2 20 A 6.968 6.968 0 0 1 145.063 19.199 Q 145.016 18.785 145.004 18.318 A 12.512 12.512 0 0 1 145 18 Q 145 16.8 145.2 16 A 6.968 6.968 0 0 1 145.063 15.199 Q 145.016 14.785 145.004 14.318 A 12.512 12.512 0 0 1 145 14 Q 145 12.8 145.2 12 A 6.968 6.968 0 0 1 145.063 11.199 Q 145.016 10.785 145.004 10.318 A 12.512 12.512 0 0 1 145 10 Q 145 8.8 145.2 8 A 6.968 6.968 0 0 1 145.063 7.199 Q 145.016 6.785 145.004 6.318 A 12.512 12.512 0 0 1 145 6 Q 145 4.8 145.2 4 L 142.2 4 A 6.968 6.968 0 0 1 142.063 3.199 Q 142.016 2.785 142.004 2.318 A 12.512 12.512 0 0 1 142 2 Q 142 0.8 142.2 0 L 149.2 0 A 5.87 5.87 0 0 1 149.322 0.656 Q 149.368 1.009 149.387 1.416 A 12.653 12.653 0 0 1 149.4 2 A 11.181 11.181 0 0 1 149.364 2.917 Q 149.328 3.361 149.254 3.748 A 6.155 6.155 0 0 1 149.2 4 A 5.87 5.87 0 0 1 149.322 4.656 Q 149.368 5.009 149.387 5.416 A 12.653 12.653 0 0 1 149.4 6 A 11.181 11.181 0 0 1 149.364 6.917 Q 149.328 7.361 149.254 7.748 A 6.155 6.155 0 0 1 149.2 8 A 5.87 5.87 0 0 1 149.322 8.656 Q 149.368 9.009 149.387 9.416 A 12.653 12.653 0 0 1 149.4 10 A 11.181 11.181 0 0 1 149.364 10.917 Q 149.328 11.361 149.254 11.748 A 6.155 6.155 0 0 1 149.2 12 A 5.87 5.87 0 0 1 149.322 12.656 Q 149.368 13.009 149.387 13.416 A 12.653 12.653 0 0 1 149.4 14 A 11.181 11.181 0 0 1 149.364 14.917 Q 149.328 15.361 149.254 15.748 A 6.155 6.155 0 0 1 149.2 16 A 5.87 5.87 0 0 1 149.322 16.656 Q 149.368 17.009 149.387 17.416 A 12.653 12.653 0 0 1 149.4 18 A 11.181 11.181 0 0 1 149.364 18.917 Q 149.328 19.361 149.254 19.748 A 6.155 6.155 0 0 1 149.2 20 Q 149.349 20.597 149.387 21.416 A 12.653 12.653 0 0 1 149.4 22 A 11.181 11.181 0 0 1 149.364 22.917 Q 149.328 23.361 149.254 23.748 A 6.155 6.155 0 0 1 149.2 24 L 153.2 24 Q 153.349 24.597 153.387 25.416 A 12.653 12.653 0 0 1 153.4 26 A 11.181 11.181 0 0 1 153.364 26.917 Q 153.328 27.361 153.254 27.748 A 6.155 6.155 0 0 1 153.2 28 Z M 273.2 28 L 261.2 28 A 6.968 6.968 0 0 1 261.063 27.199 Q 261.016 26.785 261.004 26.318 A 12.512 12.512 0 0 1 261 26 Q 261 24.8 261.2 24 L 265.2 24 A 6.968 6.968 0 0 1 265.063 23.199 Q 265.016 22.785 265.004 22.318 A 12.512 12.512 0 0 1 265 22 Q 265 20.8 265.2 20 A 6.968 6.968 0 0 1 265.063 19.199 Q 265.016 18.785 265.004 18.318 A 12.512 12.512 0 0 1 265 18 Q 265 16.8 265.2 16 A 6.968 6.968 0 0 1 265.063 15.199 Q 265.016 14.785 265.004 14.318 A 12.512 12.512 0 0 1 265 14 Q 265 12.8 265.2 12 A 6.968 6.968 0 0 1 265.063 11.199 Q 265.016 10.785 265.004 10.318 A 12.512 12.512 0 0 1 265 10 Q 265 8.8 265.2 8 A 6.968 6.968 0 0 1 265.063 7.199 Q 265.016 6.785 265.004 6.318 A 12.512 12.512 0 0 1 265 6 Q 265 4.8 265.2 4 L 262.2 4 A 6.968 6.968 0 0 1 262.063 3.199 Q 262.016 2.785 262.004 2.318 A 12.512 12.512 0 0 1 262 2 Q 262 0.8 262.2 0 L 269.2 0 A 5.87 5.87 0 0 1 269.322 0.656 Q 269.368 1.009 269.387 1.416 A 12.653 12.653 0 0 1 269.4 2 A 11.181 11.181 0 0 1 269.364 2.917 Q 269.328 3.361 269.254 3.748 A 6.155 6.155 0 0 1 269.2 4 A 5.87 5.87 0 0 1 269.322 4.656 Q 269.368 5.009 269.387 5.416 A 12.653 12.653 0 0 1 269.4 6 A 11.181 11.181 0 0 1 269.364 6.917 Q 269.328 7.361 269.254 7.748 A 6.155 6.155 0 0 1 269.2 8 A 5.87 5.87 0 0 1 269.322 8.656 Q 269.368 9.009 269.387 9.416 A 12.653 12.653 0 0 1 269.4 10 A 11.181 11.181 0 0 1 269.364 10.917 Q 269.328 11.361 269.254 11.748 A 6.155 6.155 0 0 1 269.2 12 A 5.87 5.87 0 0 1 269.322 12.656 Q 269.368 13.009 269.387 13.416 A 12.653 12.653 0 0 1 269.4 14 A 11.181 11.181 0 0 1 269.364 14.917 Q 269.328 15.361 269.254 15.748 A 6.155 6.155 0 0 1 269.2 16 A 5.87 5.87 0 0 1 269.322 16.656 Q 269.368 17.009 269.387 17.416 A 12.653 12.653 0 0 1 269.4 18 A 11.181 11.181 0 0 1 269.364 18.917 Q 269.328 19.361 269.254 19.748 A 6.155 6.155 0 0 1 269.2 20 Q 269.349 20.597 269.387 21.416 A 12.653 12.653 0 0 1 269.4 22 A 11.181 11.181 0 0 1 269.364 22.917 Q 269.328 23.361 269.254 23.748 A 6.155 6.155 0 0 1 269.2 24 L 273.2 24 Q 273.349 24.597 273.387 25.416 A 12.653 12.653 0 0 1 273.4 26 A 11.181 11.181 0 0 1 273.364 26.917 Q 273.328 27.361 273.254 27.748 A 6.155 6.155 0 0 1 273.2 28 Z M 95.2 20 L 93.7 20 Q 93.849 20.597 93.887 21.416 A 12.653 12.653 0 0 1 93.9 22 A 11.181 11.181 0 0 1 93.864 22.917 Q 93.828 23.361 93.754 23.748 A 6.155 6.155 0 0 1 93.7 24 L 91.2 24 Q 91.349 24.597 91.387 25.416 A 12.653 12.653 0 0 1 91.4 26 A 11.181 11.181 0 0 1 91.364 26.917 Q 91.328 27.361 91.254 27.748 A 6.155 6.155 0 0 1 91.2 28 L 83.2 28 A 6.968 6.968 0 0 1 83.063 27.199 Q 83.016 26.785 83.004 26.318 A 12.512 12.512 0 0 1 83 26 Q 83 24.8 83.2 24 L 80.7 24 A 6.968 6.968 0 0 1 80.563 23.199 Q 80.516 22.785 80.504 22.318 A 12.512 12.512 0 0 1 80.5 22 Q 80.5 20.8 80.7 20 L 79.2 20 A 6.968 6.968 0 0 1 79.063 19.199 Q 79.016 18.785 79.004 18.318 A 12.512 12.512 0 0 1 79 18 Q 79 16.8 79.2 16 L 80.7 16 A 6.968 6.968 0 0 1 80.563 15.199 Q 80.516 14.785 80.504 14.318 A 12.512 12.512 0 0 1 80.5 14 Q 80.5 12.8 80.7 12 L 83.2 12 A 6.968 6.968 0 0 1 83.063 11.199 Q 83.016 10.785 83.004 10.318 A 12.512 12.512 0 0 1 83 10 Q 83 8.8 83.2 8 L 91.2 8 A 5.87 5.87 0 0 1 91.322 8.656 Q 91.368 9.009 91.387 9.416 A 12.653 12.653 0 0 1 91.4 10 A 11.181 11.181 0 0 1 91.364 10.917 Q 91.328 11.361 91.254 11.748 A 6.155 6.155 0 0 1 91.2 12 L 93.7 12 A 5.87 5.87 0 0 1 93.822 12.656 Q 93.868 13.009 93.887 13.416 A 12.653 12.653 0 0 1 93.9 14 A 11.181 11.181 0 0 1 93.864 14.917 Q 93.828 15.361 93.754 15.748 A 6.155 6.155 0 0 1 93.7 16 L 95.2 16 A 5.87 5.87 0 0 1 95.322 16.656 Q 95.368 17.009 95.387 17.416 A 12.653 12.653 0 0 1 95.4 18 A 11.181 11.181 0 0 1 95.364 18.917 Q 95.328 19.361 95.254 19.748 A 6.155 6.155 0 0 1 95.2 20 Z M 68.7 12 L 63.7 12 A 5.87 5.87 0 0 1 63.822 12.656 Q 63.868 13.009 63.887 13.416 A 12.653 12.653 0 0 1 63.9 14 A 11.181 11.181 0 0 1 63.864 14.917 Q 63.828 15.361 63.754 15.748 A 6.155 6.155 0 0 1 63.7 16 L 62.2 16 A 5.87 5.87 0 0 1 62.322 16.656 Q 62.368 17.009 62.387 17.416 A 12.653 12.653 0 0 1 62.4 18 A 11.181 11.181 0 0 1 62.364 18.917 Q 62.328 19.361 62.254 19.748 A 6.155 6.155 0 0 1 62.2 20 L 63.7 20 Q 63.849 20.597 63.887 21.416 A 12.653 12.653 0 0 1 63.9 22 A 11.181 11.181 0 0 1 63.864 22.917 Q 63.828 23.361 63.754 23.748 A 6.155 6.155 0 0 1 63.7 24 L 68.7 24 Q 68.849 24.597 68.887 25.416 A 12.653 12.653 0 0 1 68.9 26 A 11.181 11.181 0 0 1 68.864 26.917 Q 68.828 27.361 68.754 27.748 A 6.155 6.155 0 0 1 68.7 28 L 63.2 28 A 6.968 6.968 0 0 1 63.063 27.199 Q 63.016 26.785 63.004 26.318 A 12.512 12.512 0 0 1 63 26 Q 63 24.8 63.2 24 L 60.7 24 A 6.968 6.968 0 0 1 60.563 23.199 Q 60.516 22.785 60.504 22.318 A 12.512 12.512 0 0 1 60.5 22 Q 60.5 20.8 60.7 20 L 59.2 20 A 6.968 6.968 0 0 1 59.063 19.199 Q 59.016 18.785 59.004 18.318 A 12.512 12.512 0 0 1 59 18 Q 59 16.8 59.2 16 L 60.7 16 A 6.968 6.968 0 0 1 60.563 15.199 Q 60.516 14.785 60.504 14.318 A 12.512 12.512 0 0 1 60.5 14 Q 60.5 12.8 60.7 12 L 63.2 12 A 6.968 6.968 0 0 1 63.063 11.199 Q 63.016 10.785 63.004 10.318 A 12.512 12.512 0 0 1 63 10 Q 63 8.8 63.2 8 L 68.7 8 A 5.87 5.87 0 0 1 68.822 8.656 Q 68.868 9.009 68.887 9.416 A 12.653 12.653 0 0 1 68.9 10 A 11.181 11.181 0 0 1 68.864 10.917 Q 68.828 11.361 68.754 11.748 A 6.155 6.155 0 0 1 68.7 12 Z M 75.2 28 L 71.2 28 A 6.968 6.968 0 0 1 71.063 27.199 Q 71.016 26.785 71.004 26.318 A 12.512 12.512 0 0 1 71 26 Q 71 24.8 71.2 24 L 69.7 24 A 6.968 6.968 0 0 1 69.563 23.199 Q 69.516 22.785 69.504 22.318 A 12.512 12.512 0 0 1 69.5 22 Q 69.5 20.8 69.7 20 L 71.2 20 A 6.968 6.968 0 0 1 71.063 19.199 Q 71.016 18.785 71.004 18.318 A 12.512 12.512 0 0 1 71 18 Q 71 16.8 71.2 16 L 69.7 16 A 6.968 6.968 0 0 1 69.563 15.199 Q 69.516 14.785 69.504 14.318 A 12.512 12.512 0 0 1 69.5 14 Q 69.5 12.8 69.7 12 L 71.2 12 A 6.968 6.968 0 0 1 71.063 11.199 Q 71.016 10.785 71.004 10.318 A 12.512 12.512 0 0 1 71 10 Q 71 8.8 71.2 8 A 6.968 6.968 0 0 1 71.063 7.199 Q 71.016 6.785 71.004 6.318 A 12.512 12.512 0 0 1 71 6 Q 71 4.8 71.2 4 A 6.968 6.968 0 0 1 71.063 3.199 Q 71.016 2.785 71.004 2.318 A 12.512 12.512 0 0 1 71 2 Q 71 0.8 71.2 0 L 75.2 0 A 5.87 5.87 0 0 1 75.322 0.656 Q 75.368 1.009 75.387 1.416 A 12.653 12.653 0 0 1 75.4 2 A 11.181 11.181 0 0 1 75.364 2.917 Q 75.328 3.361 75.254 3.748 A 6.155 6.155 0 0 1 75.2 4 A 5.87 5.87 0 0 1 75.322 4.656 Q 75.368 5.009 75.387 5.416 A 12.653 12.653 0 0 1 75.4 6 A 11.181 11.181 0 0 1 75.364 6.917 Q 75.328 7.361 75.254 7.748 A 6.155 6.155 0 0 1 75.2 8 A 5.87 5.87 0 0 1 75.322 8.656 Q 75.368 9.009 75.387 9.416 A 12.653 12.653 0 0 1 75.4 10 A 11.181 11.181 0 0 1 75.364 10.917 Q 75.328 11.361 75.254 11.748 A 6.155 6.155 0 0 1 75.2 12 A 5.87 5.87 0 0 1 75.322 12.656 Q 75.368 13.009 75.387 13.416 A 12.653 12.653 0 0 1 75.4 14 A 11.181 11.181 0 0 1 75.364 14.917 Q 75.328 15.361 75.254 15.748 A 6.155 6.155 0 0 1 75.2 16 A 5.87 5.87 0 0 1 75.322 16.656 Q 75.368 17.009 75.387 17.416 A 12.653 12.653 0 0 1 75.4 18 A 11.181 11.181 0 0 1 75.364 18.917 Q 75.328 19.361 75.254 19.748 A 6.155 6.155 0 0 1 75.2 20 Q 75.349 20.597 75.387 21.416 A 12.653 12.653 0 0 1 75.4 22 A 11.181 11.181 0 0 1 75.364 22.917 Q 75.328 23.361 75.254 23.748 A 6.155 6.155 0 0 1 75.2 24 Q 75.349 24.597 75.387 25.416 A 12.653 12.653 0 0 1 75.4 26 A 11.181 11.181 0 0 1 75.364 26.917 Q 75.328 27.361 75.254 27.748 A 6.155 6.155 0 0 1 75.2 28 Z M 293.2 28 L 281.2 28 A 6.968 6.968 0 0 1 281.063 27.199 Q 281.016 26.785 281.004 26.318 A 12.512 12.512 0 0 1 281 26 Q 281 24.8 281.2 24 L 285.2 24 A 6.968 6.968 0 0 1 285.063 23.199 Q 285.016 22.785 285.004 22.318 A 12.512 12.512 0 0 1 285 22 Q 285 20.8 285.2 20 A 6.968 6.968 0 0 1 285.063 19.199 Q 285.016 18.785 285.004 18.318 A 12.512 12.512 0 0 1 285 18 Q 285 16.8 285.2 16 A 6.968 6.968 0 0 1 285.063 15.199 Q 285.016 14.785 285.004 14.318 A 12.512 12.512 0 0 1 285 14 Q 285 12.8 285.2 12 L 282.2 12 A 6.968 6.968 0 0 1 282.063 11.199 Q 282.016 10.785 282.004 10.318 A 12.512 12.512 0 0 1 282 10 Q 282 8.8 282.2 8 L 289.2 8 A 5.87 5.87 0 0 1 289.322 8.656 Q 289.368 9.009 289.387 9.416 A 12.653 12.653 0 0 1 289.4 10 A 11.181 11.181 0 0 1 289.364 10.917 Q 289.328 11.361 289.254 11.748 A 6.155 6.155 0 0 1 289.2 12 A 5.87 5.87 0 0 1 289.322 12.656 Q 289.368 13.009 289.387 13.416 A 12.653 12.653 0 0 1 289.4 14 A 11.181 11.181 0 0 1 289.364 14.917 Q 289.328 15.361 289.254 15.748 A 6.155 6.155 0 0 1 289.2 16 A 5.87 5.87 0 0 1 289.322 16.656 Q 289.368 17.009 289.387 17.416 A 12.653 12.653 0 0 1 289.4 18 A 11.181 11.181 0 0 1 289.364 18.917 Q 289.328 19.361 289.254 19.748 A 6.155 6.155 0 0 1 289.2 20 Q 289.349 20.597 289.387 21.416 A 12.653 12.653 0 0 1 289.4 22 A 11.181 11.181 0 0 1 289.364 22.917 Q 289.328 23.361 289.254 23.748 A 6.155 6.155 0 0 1 289.2 24 L 293.2 24 Q 293.349 24.597 293.387 25.416 A 12.653 12.653 0 0 1 293.4 26 A 11.181 11.181 0 0 1 293.364 26.917 Q 293.328 27.361 293.254 27.748 A 6.155 6.155 0 0 1 293.2 28 Z M 89.7 20 L 91.2 20 A 6.968 6.968 0 0 1 91.063 19.199 Q 91.016 18.785 91.004 18.318 A 12.512 12.512 0 0 1 91 18 Q 91 16.8 91.2 16 L 89.7 16 A 6.968 6.968 0 0 1 89.563 15.199 Q 89.516 14.785 89.504 14.318 A 12.512 12.512 0 0 1 89.5 14 Q 89.5 12.8 89.7 12 L 84.7 12 A 5.87 5.87 0 0 1 84.822 12.656 Q 84.868 13.009 84.887 13.416 A 12.653 12.653 0 0 1 84.9 14 A 11.181 11.181 0 0 1 84.864 14.917 Q 84.828 15.361 84.754 15.748 A 6.155 6.155 0 0 1 84.7 16 L 83.2 16 A 5.87 5.87 0 0 1 83.322 16.656 Q 83.368 17.009 83.387 17.416 A 12.653 12.653 0 0 1 83.4 18 A 11.181 11.181 0 0 1 83.364 18.917 Q 83.328 19.361 83.254 19.748 A 6.155 6.155 0 0 1 83.2 20 L 84.7 20 Q 84.849 20.597 84.887 21.416 A 12.653 12.653 0 0 1 84.9 22 A 11.181 11.181 0 0 1 84.864 22.917 Q 84.828 23.361 84.754 23.748 A 6.155 6.155 0 0 1 84.7 24 L 89.7 24 A 6.968 6.968 0 0 1 89.563 23.199 Q 89.516 22.785 89.504 22.318 A 12.512 12.512 0 0 1 89.5 22 Q 89.5 20.8 89.7 20 Z M 251.2 12 L 244.7 12 A 5.87 5.87 0 0 1 244.822 12.656 Q 244.868 13.009 244.887 13.416 A 12.653 12.653 0 0 1 244.9 14 A 11.181 11.181 0 0 1 244.864 14.917 Q 244.828 15.361 244.754 15.748 A 6.155 6.155 0 0 1 244.7 16 L 251.2 16 A 6.968 6.968 0 0 1 251.063 15.199 Q 251.016 14.785 251.004 14.318 A 12.512 12.512 0 0 1 251 14 Q 251 12.8 251.2 12 Z M 289.2 4 L 285.2 4 A 6.968 6.968 0 0 1 285.063 3.199 Q 285.016 2.785 285.004 2.318 A 12.512 12.512 0 0 1 285 2 Q 285 0.8 285.2 0 L 289.2 0 A 5.87 5.87 0 0 1 289.322 0.656 Q 289.368 1.009 289.387 1.416 A 12.653 12.653 0 0 1 289.4 2 A 11.181 11.181 0 0 1 289.364 2.917 Q 289.328 3.361 289.254 3.748 A 6.155 6.155 0 0 1 289.2 4 Z" vector-effect="non-scaling-stroke"/></g></svg>